<svg width="21" height="21" viewBox="0 0 21 21" fill="none" xmlns="http://www.w3.org/2000/svg">
<path d="M2.01174 0.0475659C1.31474 0.180824 0.566484 0.765107 0.248731 1.43139C0.0129797 1.93367 -0.0587708 2.47695 0.0488549 2.97411C0.166731 3.50201 0.356357 3.88128 0.679234 4.2298C2.2475 5.91603 5.00989 4.82946 5.00989 2.52308C5.00989 0.91374 3.59025 -0.254826 2.01174 0.0475659Z" fill="#475552"/>
<path d="M14.6965 6.75169C14.4556 6.80294 14.1481 6.88495 14.0046 6.93107C13.1487 7.22834 12.2877 7.88438 11.8265 8.60704L11.6215 8.91456L11.6112 7.95101L11.5958 6.98233L9.50996 6.96695L7.41895 6.9567V13.9783V21H9.59709H11.7752V17.2432C11.7752 13.5017 11.8009 12.8918 11.9597 12.2614C12.1494 11.5233 12.6004 10.9339 13.1692 10.6725C13.7535 10.406 14.6914 10.3753 15.2807 10.5957C15.8496 10.8109 16.275 11.3388 16.4595 12.0615C16.6133 12.6611 16.644 13.4914 16.644 17.2175V20.9487H18.8221H21.0003V16.8588C21.0003 12.6304 20.9695 11.6976 20.7902 10.6982C20.3699 8.3149 19.1604 7.05408 16.9669 6.72606C16.275 6.62356 15.2449 6.63381 14.6965 6.75169Z" fill="#475552"/>
<path d="M0.345703 13.9784V21H2.52384H4.70198V13.9784V6.9567H2.52384H0.345703V13.9784Z" fill="#475552"/>
</svg>
