<svg width="21" height="21" fill="none"
    xmlns="http://www.w3.org/2000/svg">
    <path d="M1 2.064C1 1.476 1.476 1 2.064 1H8.8c.587 0 1.064.476 1.064 1.064V8.8c0 .587-.477 1.064-1.064 1.064H2.064A1.064 1.064 0 0 1 1 8.8V2.064ZM11.636 2.064c0-.588.477-1.064 1.064-1.064h6.736c.588 0 1.064.476 1.064 1.064V8.8c0 .587-.476 1.064-1.064 1.064H12.7A1.064 1.064 0 0 1 11.636 8.8V2.064ZM1 12.7c0-.587.476-1.064 1.064-1.064H8.8c.587 0 1.064.477 1.064 1.064v6.736c0 .588-.477 1.064-1.064 1.064H2.064A1.064 1.064 0 0 1 1 19.436V12.7Z" fill="#445552" />
    <path d="M16.068 11.636H12.7c-.587 0-1.064.477-1.064 1.064v6.736c0 .588.477 1.064 1.064 1.064h6.736c.588 0 1.064-.476 1.064-1.064v-3.368m-3.546-4.432H19.9a.6.6 0 0 1 .6.6v2.946M2.064 9.864H8.8c.587 0 1.064-.477 1.064-1.064V2.064C9.864 1.476 9.387 1 8.8 1H2.064C1.476 1 1 1.476 1 2.064V8.8c0 .587.476 1.064 1.064 1.064Zm10.636 0h6.736c.588 0 1.064-.477 1.064-1.064V2.064C20.5 1.476 20.024 1 19.436 1H12.7c-.587 0-1.064.476-1.064 1.064V8.8c0 .587.477 1.064 1.064 1.064ZM2.064 20.5H8.8c.587 0 1.064-.476 1.064-1.064V12.7c0-.587-.477-1.064-1.064-1.064H2.064C1.476 11.636 1 12.113 1 12.7v6.736c0 .588.476 1.064 1.064 1.064Z" stroke="#445552" stroke-width=".8" />
</svg>